<?xml version="1.0" encoding="UTF-8" standalone="no"?>
<!-- Generator: Adobe Illustrator 10.0, SVG Export Plug-In . SVG Version: 3.0.0 Build 77)  -->

<svg
   xmlns:i="http://ns.adobe.com/AdobeIllustrator/10.0/"
   xmlns:dc="http://purl.org/dc/elements/1.1/"
   xmlns:cc="http://creativecommons.org/ns#"
   xmlns:rdf="http://www.w3.org/1999/02/22-rdf-syntax-ns#"
   xmlns:svg="http://www.w3.org/2000/svg"
   xmlns="http://www.w3.org/2000/svg"
   xmlns:sodipodi="http://sodipodi.sourceforge.net/DTD/sodipodi-0.dtd"
   xmlns:inkscape="http://www.inkscape.org/namespaces/inkscape"
   i:rulerOrigin="0 0"
   i:viewOrigin="193 439"
   space="preserve"
   i:pageBounds="0 792 612 0"
   viewBox="0 0 273.10478 775.43037"
   enable-background="new 0 0 224.819 86.686"
   overflow="visible"
   id="svg2"
   version="1.1"
   inkscape:version="0.92.1 r15371"
   width="273.10477"
   height="775.43036"
   sodipodi:docname="eraser.svg"
   style="overflow:visible">
  <defs
     id="defs43" />
  <sodipodi:namedview
     pagecolor="#ffffff"
     bordercolor="#666666"
     borderopacity="1"
     objecttolerance="10"
     gridtolerance="10"
     guidetolerance="10"
     inkscape:pageopacity="0"
     inkscape:pageshadow="2"
     inkscape:window-width="1366"
     inkscape:window-height="706"
     id="namedview41"
     showgrid="false"
     inkscape:zoom="0.40120419"
     inkscape:cx="-225.78483"
     inkscape:cy="391.79594"
     inkscape:window-x="-8"
     inkscape:window-y="-8"
     inkscape:window-maximized="1"
     inkscape:current-layer="svg2"
     fit-margin-top="0"
     fit-margin-left="0"
     fit-margin-right="0"
     fit-margin-bottom="0" />
  <metadata
     id="metadata39">
    <rdf:RDF>
      <cc:Work>
        <dc:format>image/svg+xml</dc:format>
        <dc:type
           rdf:resource="http://purl.org/dc/dcmitype/StillImage" />
        <cc:license
           rdf:resource="http://creativecommons.org/publicdomain/zero/1.0/" />
        <dc:publisher>
          <cc:Agent
             rdf:about="http://openclipart.org/">
            <dc:title>Openclipart</dc:title>
          </cc:Agent>
        </dc:publisher>
        <dc:title></dc:title>
        <dc:date>2007-11-26T20:08:10</dc:date>
        <dc:description>This Clip Art is part of a fast food menu set. Search for &quot;fastfood&quot; to find all.</dc:description>
        <dc:source>https://openclipart.org/detail/9076/fast-food-lunch-dinner-corn-by-gerald_g</dc:source>
        <dc:creator>
          <cc:Agent>
            <dc:title>Gerald_G</dc:title>
          </cc:Agent>
        </dc:creator>
        <dc:subject>
          <rdf:Bag>
            <rdf:li>butter</rdf:li>
            <rdf:li>colouring book</rdf:li>
            <rdf:li>corn</rdf:li>
            <rdf:li>fastfood</rdf:li>
            <rdf:li>food</rdf:li>
            <rdf:li>lunch</rdf:li>
            <rdf:li>menu</rdf:li>
          </rdf:Bag>
        </dc:subject>
      </cc:Work>
      <cc:License
         rdf:about="http://creativecommons.org/publicdomain/zero/1.0/">
        <cc:permits
           rdf:resource="http://creativecommons.org/ns#Reproduction" />
        <cc:permits
           rdf:resource="http://creativecommons.org/ns#Distribution" />
        <cc:permits
           rdf:resource="http://creativecommons.org/ns#DerivativeWorks" />
      </cc:License>
    </rdf:RDF>
  </metadata>
  <g
     id="g6486"
     transform="rotate(-90,387.32745,388.10219)">
    <path
       sodipodi:nodetypes="ssssccsss"
       inkscape:connector-curvature="0"
       id="rect3155"
       d="M 173.23442,18.477309 H 426.8979 c 17.37557,0 15.23376,6.637336 10.39794,23.326402 L 378.01127,246.40269 C 373.17545,263.09177 305.83463,257.3216 288.45906,257.3216 202.28502,261.06344 104.0962,273.97048 20.83714,249.56692 4.1630548,244.67968 -5.3153844,160.60244 7.3373378,148.69366 L 120.9047,41.803711 C 133.55741,29.89494 155.85886,18.477309 173.23442,18.477309 Z"
       style="fill:#e6e6e6;fill-opacity:1;stroke:#554400;stroke-width:3;stroke-miterlimit:4;stroke-opacity:1" />
    <path
       sodipodi:nodetypes="ccccccc"
       inkscape:connector-curvature="0"
       id="rect3050"
       d="M 336.50915,127.06965 773.26861,3.6933648 772.43869,127.06965 632.7544,272.3795 H 196.82486 l -0.78223,-124.47298 z"
       style="fill:#4317f9;fill-opacity:1;stroke:#554400;stroke-width:3;stroke-miterlimit:4;stroke-opacity:1" />
    <rect
       transform="matrix(1,0,-0.69301407,0.72092406,0,0)"
       y="2.8412821"
       x="338.47821"
       height="201.56055"
       width="435.92953"
       id="rect3046"
       style="fill:#4317f9;fill-opacity:1;stroke:#554400;stroke-width:3.53326726;stroke-miterlimit:4;stroke-dasharray:none;stroke-opacity:1" />
    <path
       inkscape:connector-curvature="0"
       id="path3052"
       d="M 195.38297,147.90652 V 271.83114"
       style="fill:none;stroke:#554400;stroke-width:3;stroke-linecap:butt;stroke-linejoin:miter;stroke-opacity:1" />
    <path
       style="fill:none;stroke:#554400;stroke-width:3;stroke-linecap:butt;stroke-linejoin:miter;stroke-opacity:1"
       d="M 632.95753,147.90652 V 271.83114"
       id="path3054"
       inkscape:connector-curvature="0" />
    <path
       inkscape:connector-curvature="0"
       id="path3056"
       d="M 772.78398,1.5 V 125.42462"
       style="fill:none;stroke:#554400;stroke-width:3;stroke-linecap:butt;stroke-linejoin:miter;stroke-opacity:1" />
    <g
       id="flowRoot3059"
       style="font-style:normal;font-variant:normal;font-weight:normal;font-stretch:normal;line-height:0.01%;font-family:Homespun;-inkscape-font-specification:Homespun;letter-spacing:0px;word-spacing:0px;fill:#ffffff;fill-opacity:1;stroke:none"
       transform="matrix(2.448155,0,0,2.448155,1829.1756,644.80034)"
       aria-label="Eraser">
      <path
         id="path6452"
         style="font-style:normal;font-variant:normal;font-weight:normal;font-stretch:normal;font-size:40px;line-height:1.25;font-family:'Arial Rounded MT Bold';-inkscape-font-specification:'Arial Rounded MT Bold, ';fill:#ffffff;fill-opacity:1"
         d="m -623.19727,-188.35211 h -13.0664 v 7.03125 h 12.03125 q 1.32812,0 1.97265,0.60547 0.66407,0.58594 0.66407,1.5625 0,0.97656 -0.64453,1.60156 -0.64454,0.60547 -1.99219,0.60547 h -12.03125 v 8.14453 h 13.51562 q 1.36719,0 2.05078,0.64454 0.70313,0.625 0.70313,1.67968 0,1.01563 -0.70313,1.66016 -0.68359,0.625 -2.05078,0.625 h -15.76172 q -1.89453,0 -2.73437,-0.83984 -0.82031,-0.83985 -0.82031,-2.71485 v -21.52344 q 0,-1.25 0.37109,-2.03125 0.37109,-0.80078 1.15234,-1.15234 0.80079,-0.37109 2.03125,-0.37109 h 15.3125 q 1.38672,0 2.05079,0.625 0.68359,0.60547 0.68359,1.60156 0,1.01562 -0.68359,1.64062 -0.66407,0.60547 -2.05079,0.60547 z"
         inkscape:connector-curvature="0" />
      <path
         id="path6454"
         style="font-style:normal;font-variant:normal;font-weight:normal;font-stretch:normal;font-size:40px;line-height:1.25;font-family:'Arial Rounded MT Bold';-inkscape-font-specification:'Arial Rounded MT Bold, ';fill:#ffffff;fill-opacity:1"
         d="m -610.42383,-171.39898 v 4.45312 q 0,1.6211 -0.76172,2.44141 -0.76172,0.80078 -1.93359,0.80078 -1.15234,0 -1.89453,-0.82031 -0.74219,-0.82031 -0.74219,-2.42188 v -14.84375 q 0,-3.59375 2.59766,-3.59375 1.32812,0 1.91406,0.83985 0.58594,0.83984 0.64453,2.48047 0.95703,-1.64063 1.95313,-2.48047 1.01562,-0.83985 2.69531,-0.83985 1.67969,0 3.26172,0.83985 1.58203,0.83984 1.58203,2.22656 0,0.97656 -0.6836,1.62109 -0.66406,0.625 -1.44531,0.625 -0.29297,0 -1.42578,-0.35156 -1.11328,-0.37109 -1.97266,-0.37109 -1.17187,0 -1.91406,0.625 -0.74219,0.60547 -1.15234,1.8164 -0.41016,1.21094 -0.56641,2.89063 -0.15625,1.66015 -0.15625,4.0625 z"
         inkscape:connector-curvature="0" />
      <path
         id="path6456"
         style="font-style:normal;font-variant:normal;font-weight:normal;font-stretch:normal;font-size:40px;line-height:1.25;font-family:'Arial Rounded MT Bold';-inkscape-font-specification:'Arial Rounded MT Bold, ';fill:#ffffff;fill-opacity:1"
         d="m -585.75586,-166.71148 q -1.93359,1.5039 -3.75,2.26562 -1.79687,0.74219 -4.04297,0.74219 -2.05078,0 -3.61328,-0.80078 -1.54297,-0.82031 -2.38281,-2.20703 -0.83985,-1.38672 -0.83985,-3.00781 0,-2.1875 1.38672,-3.73047 1.38672,-1.54297 3.8086,-2.07032 0.50781,-0.11718 2.51953,-0.52734 2.01172,-0.41016 3.4375,-0.74219 1.44531,-0.35156 3.125,-0.83984 -0.0977,-2.10938 -0.85938,-3.08594 -0.74218,-0.99609 -3.10547,-0.99609 -2.03125,0 -3.0664,0.5664 -1.01563,0.56641 -1.75781,1.69922 -0.72266,1.13282 -1.03516,1.50391 -0.29297,0.35156 -1.28906,0.35156 -0.89844,0 -1.5625,-0.5664 -0.64453,-0.58594 -0.64453,-1.48438 0,-1.40625 0.99609,-2.73437 0.99609,-1.32813 3.10547,-2.1875 2.10937,-0.85938 5.2539,-0.85938 3.51563,0 5.52735,0.83984 2.01172,0.82032 2.83203,2.61719 0.83984,1.79688 0.83984,4.76563 0,1.875 -0.0195,3.18359 0,1.30859 -0.0195,2.91016 0,1.5039 0.48828,3.14453 0.50781,1.62109 0.50781,2.08984 0,0.82031 -0.78125,1.50391 -0.76171,0.66406 -1.73828,0.66406 -0.82031,0 -1.62109,-0.76172 -0.80078,-0.78125 -1.69922,-2.24609 z m -0.35156,-7.71485 q -1.17188,0.42969 -3.41797,0.91797 -2.22656,0.46875 -3.08594,0.70313 -0.85937,0.21484 -1.64062,0.8789 -0.78125,0.64454 -0.78125,1.81641 0,1.21094 0.91797,2.07031 0.91796,0.83985 2.40234,0.83985 1.58203,0 2.91016,-0.6836 1.34765,-0.70312 1.97265,-1.79687 0.72266,-1.21094 0.72266,-3.98438 z"
         inkscape:connector-curvature="0" />
      <path
         id="path6458"
         style="font-style:normal;font-variant:normal;font-weight:normal;font-stretch:normal;font-size:40px;line-height:1.25;font-family:'Arial Rounded MT Bold';-inkscape-font-specification:'Arial Rounded MT Bold, ';fill:#ffffff;fill-opacity:1"
         d="m -558.31445,-170.67633 q 0,2.20704 -1.07422,3.78907 -1.07422,1.5625 -3.1836,2.38281 -2.08984,0.80078 -5.09765,0.80078 -2.8711,0 -4.92188,-0.87891 -2.05078,-0.8789 -3.02734,-2.1875 -0.97656,-1.32812 -0.97656,-2.65625 0,-0.8789 0.625,-1.5039 0.625,-0.625 1.58203,-0.625 0.83984,0 1.28906,0.41015 0.44922,0.41016 0.85938,1.15235 0.82031,1.42578 1.95312,2.1289 1.15234,0.70313 3.125,0.70313 1.60156,0 2.61719,-0.70313 1.03515,-0.72265 1.03515,-1.64062 0,-1.40625 -1.07421,-2.05078 -1.05469,-0.64453 -3.4961,-1.23047 -2.7539,-0.68359 -4.49219,-1.42578 -1.71875,-0.76172 -2.7539,-1.99219 -1.03516,-1.23047 -1.03516,-3.02734 0,-1.60157 0.95703,-3.02735 0.95703,-1.42578 2.8125,-2.26562 1.875,-0.85938 4.51172,-0.85938 2.07031,0 3.71094,0.42969 1.66016,0.42969 2.75391,1.15234 1.11328,0.72266 1.67968,1.60157 0.58594,0.8789 0.58594,1.71875 0,0.91797 -0.625,1.5039 -0.60547,0.58594 -1.73828,0.58594 -0.82031,0 -1.40625,-0.46875 -0.56641,-0.46875 -1.30859,-1.40625 -0.60547,-0.78125 -1.42579,-1.25 -0.82031,-0.46875 -2.22656,-0.46875 -1.44531,0 -2.40234,0.625 -0.95703,0.60547 -0.95703,1.52344 0,0.83984 0.70312,1.38672 0.70313,0.52734 1.89453,0.8789 1.19141,0.35157 3.28125,0.85938 2.48047,0.60547 4.04297,1.44531 1.58203,0.83984 2.38281,1.99219 0.82032,1.13281 0.82032,2.59765 z"
         inkscape:connector-curvature="0" />
      <path
         id="path6460"
         style="font-style:normal;font-variant:normal;font-weight:normal;font-stretch:normal;font-size:40px;line-height:1.25;font-family:'Arial Rounded MT Bold';-inkscape-font-specification:'Arial Rounded MT Bold, ';fill:#ffffff;fill-opacity:1"
         d="m -538.88086,-173.23492 h -10.42969 q 0.0195,1.81641 0.72266,3.20313 0.72266,1.38671 1.89453,2.08984 1.19141,0.70312 2.61719,0.70312 0.95703,0 1.73828,-0.21484 0.80078,-0.23437 1.54297,-0.70312 0.74219,-0.48829 1.36719,-1.03516 0.625,-0.54688 1.62109,-1.48438 0.41016,-0.35156 1.17187,-0.35156 0.82032,0 1.32813,0.44922 0.50781,0.44922 0.50781,1.26953 0,0.72266 -0.5664,1.69922 -0.56641,0.95703 -1.71875,1.85547 -1.13282,0.87891 -2.8711,1.46484 -1.71875,0.58594 -3.96484,0.58594 -5.13672,0 -7.98828,-2.92969 -2.85157,-2.92968 -2.85157,-7.94922 0,-2.36328 0.70313,-4.375 0.70312,-2.03125 2.05078,-3.47656 1.34766,-1.44531 3.32031,-2.20703 1.97266,-0.78125 4.375,-0.78125 3.125,0 5.35157,1.32813 2.24609,1.30859 3.35937,3.39843 1.11328,2.08985 1.11328,4.25782 0,2.01171 -1.15234,2.61718 -1.15235,0.58594 -3.24219,0.58594 z m -10.42969,-3.02734 h 9.66797 q -0.19531,-2.73438 -1.48437,-4.08203 -1.26953,-1.36719 -3.35938,-1.36719 -1.99219,0 -3.28125,1.38672 -1.26953,1.36718 -1.54297,4.0625 z"
         inkscape:connector-curvature="0" />
      <path
         id="path6462"
         style="font-style:normal;font-variant:normal;font-weight:normal;font-stretch:normal;font-size:40px;line-height:1.25;font-family:'Arial Rounded MT Bold';-inkscape-font-specification:'Arial Rounded MT Bold, ';fill:#ffffff;fill-opacity:1"
         d="m -524.7207,-171.39898 v 4.45312 q 0,1.6211 -0.76172,2.44141 -0.76172,0.80078 -1.9336,0.80078 -1.15234,0 -1.89453,-0.82031 -0.74218,-0.82031 -0.74218,-2.42188 v -14.84375 q 0,-3.59375 2.59765,-3.59375 1.32813,0 1.91406,0.83985 0.58594,0.83984 0.64454,2.48047 0.95703,-1.64063 1.95312,-2.48047 1.01563,-0.83985 2.69531,-0.83985 1.67969,0 3.26172,0.83985 1.58203,0.83984 1.58203,2.22656 0,0.97656 -0.68359,1.62109 -0.66406,0.625 -1.44531,0.625 -0.29297,0 -1.42578,-0.35156 -1.11329,-0.37109 -1.97266,-0.37109 -1.17188,0 -1.91406,0.625 -0.74219,0.60547 -1.15235,1.8164 -0.41015,1.21094 -0.5664,2.89063 -0.15625,1.66015 -0.15625,4.0625 z"
         inkscape:connector-curvature="0" />
    </g>
    <g
       id="flowRoot3111"
       style="font-style:normal;font-variant:normal;font-weight:normal;font-stretch:normal;line-height:0.01%;font-family:Homespun;-inkscape-font-specification:Homespun;letter-spacing:0px;word-spacing:0px;fill:#ffffff;fill-opacity:1;stroke:none"
       transform="matrix(2.2878566,0,-2.0639989,2.5432645,1432.1638,517.35171)"
       aria-label="Eraser">
      <path
         inkscape:connector-curvature="0"
         id="path6439"
         style="font-style:normal;font-variant:normal;font-weight:normal;font-stretch:normal;font-size:40px;line-height:1.25;font-family:'Arial Rounded MT Bold';-inkscape-font-specification:'Arial Rounded MT Bold, ';fill:#ffffff;fill-opacity:1"
         d="m -623.19727,-188.35211 h -13.0664 v 7.03125 h 12.03125 q 1.32812,0 1.97265,0.60547 0.66407,0.58594 0.66407,1.5625 0,0.97656 -0.64453,1.60156 -0.64454,0.60547 -1.99219,0.60547 h -12.03125 v 8.14453 h 13.51562 q 1.36719,0 2.05078,0.64454 0.70313,0.625 0.70313,1.67968 0,1.01563 -0.70313,1.66016 -0.68359,0.625 -2.05078,0.625 h -15.76172 q -1.89453,0 -2.73437,-0.83984 -0.82031,-0.83985 -0.82031,-2.71485 v -21.52344 q 0,-1.25 0.37109,-2.03125 0.37109,-0.80078 1.15234,-1.15234 0.80079,-0.37109 2.03125,-0.37109 h 15.3125 q 1.38672,0 2.05079,0.625 0.68359,0.60547 0.68359,1.60156 0,1.01562 -0.68359,1.64062 -0.66407,0.60547 -2.05079,0.60547 z" />
      <path
         inkscape:connector-curvature="0"
         id="path6441"
         style="font-style:normal;font-variant:normal;font-weight:normal;font-stretch:normal;font-size:40px;line-height:1.25;font-family:'Arial Rounded MT Bold';-inkscape-font-specification:'Arial Rounded MT Bold, ';fill:#ffffff;fill-opacity:1"
         d="m -610.42383,-171.39898 v 4.45312 q 0,1.6211 -0.76172,2.44141 -0.76172,0.80078 -1.93359,0.80078 -1.15234,0 -1.89453,-0.82031 -0.74219,-0.82031 -0.74219,-2.42188 v -14.84375 q 0,-3.59375 2.59766,-3.59375 1.32812,0 1.91406,0.83985 0.58594,0.83984 0.64453,2.48047 0.95703,-1.64063 1.95313,-2.48047 1.01562,-0.83985 2.69531,-0.83985 1.67969,0 3.26172,0.83985 1.58203,0.83984 1.58203,2.22656 0,0.97656 -0.6836,1.62109 -0.66406,0.625 -1.44531,0.625 -0.29297,0 -1.42578,-0.35156 -1.11328,-0.37109 -1.97266,-0.37109 -1.17187,0 -1.91406,0.625 -0.74219,0.60547 -1.15234,1.8164 -0.41016,1.21094 -0.56641,2.89063 -0.15625,1.66015 -0.15625,4.0625 z" />
      <path
         inkscape:connector-curvature="0"
         id="path6443"
         style="font-style:normal;font-variant:normal;font-weight:normal;font-stretch:normal;font-size:40px;line-height:1.25;font-family:'Arial Rounded MT Bold';-inkscape-font-specification:'Arial Rounded MT Bold, ';fill:#ffffff;fill-opacity:1"
         d="m -585.75586,-166.71148 q -1.93359,1.5039 -3.75,2.26562 -1.79687,0.74219 -4.04297,0.74219 -2.05078,0 -3.61328,-0.80078 -1.54297,-0.82031 -2.38281,-2.20703 -0.83985,-1.38672 -0.83985,-3.00781 0,-2.1875 1.38672,-3.73047 1.38672,-1.54297 3.8086,-2.07032 0.50781,-0.11718 2.51953,-0.52734 2.01172,-0.41016 3.4375,-0.74219 1.44531,-0.35156 3.125,-0.83984 -0.0977,-2.10938 -0.85938,-3.08594 -0.74218,-0.99609 -3.10547,-0.99609 -2.03125,0 -3.0664,0.5664 -1.01563,0.56641 -1.75781,1.69922 -0.72266,1.13282 -1.03516,1.50391 -0.29297,0.35156 -1.28906,0.35156 -0.89844,0 -1.5625,-0.5664 -0.64453,-0.58594 -0.64453,-1.48438 0,-1.40625 0.99609,-2.73437 0.99609,-1.32813 3.10547,-2.1875 2.10937,-0.85938 5.2539,-0.85938 3.51563,0 5.52735,0.83984 2.01172,0.82032 2.83203,2.61719 0.83984,1.79688 0.83984,4.76563 0,1.875 -0.0195,3.18359 0,1.30859 -0.0195,2.91016 0,1.5039 0.48828,3.14453 0.50781,1.62109 0.50781,2.08984 0,0.82031 -0.78125,1.50391 -0.76171,0.66406 -1.73828,0.66406 -0.82031,0 -1.62109,-0.76172 -0.80078,-0.78125 -1.69922,-2.24609 z m -0.35156,-7.71485 q -1.17188,0.42969 -3.41797,0.91797 -2.22656,0.46875 -3.08594,0.70313 -0.85937,0.21484 -1.64062,0.8789 -0.78125,0.64454 -0.78125,1.81641 0,1.21094 0.91797,2.07031 0.91796,0.83985 2.40234,0.83985 1.58203,0 2.91016,-0.6836 1.34765,-0.70312 1.97265,-1.79687 0.72266,-1.21094 0.72266,-3.98438 z" />
      <path
         inkscape:connector-curvature="0"
         id="path6445"
         style="font-style:normal;font-variant:normal;font-weight:normal;font-stretch:normal;font-size:40px;line-height:1.25;font-family:'Arial Rounded MT Bold';-inkscape-font-specification:'Arial Rounded MT Bold, ';fill:#ffffff;fill-opacity:1"
         d="m -558.31445,-170.67633 q 0,2.20704 -1.07422,3.78907 -1.07422,1.5625 -3.1836,2.38281 -2.08984,0.80078 -5.09765,0.80078 -2.8711,0 -4.92188,-0.87891 -2.05078,-0.8789 -3.02734,-2.1875 -0.97656,-1.32812 -0.97656,-2.65625 0,-0.8789 0.625,-1.5039 0.625,-0.625 1.58203,-0.625 0.83984,0 1.28906,0.41015 0.44922,0.41016 0.85938,1.15235 0.82031,1.42578 1.95312,2.1289 1.15234,0.70313 3.125,0.70313 1.60156,0 2.61719,-0.70313 1.03515,-0.72265 1.03515,-1.64062 0,-1.40625 -1.07421,-2.05078 -1.05469,-0.64453 -3.4961,-1.23047 -2.7539,-0.68359 -4.49219,-1.42578 -1.71875,-0.76172 -2.7539,-1.99219 -1.03516,-1.23047 -1.03516,-3.02734 0,-1.60157 0.95703,-3.02735 0.95703,-1.42578 2.8125,-2.26562 1.875,-0.85938 4.51172,-0.85938 2.07031,0 3.71094,0.42969 1.66016,0.42969 2.75391,1.15234 1.11328,0.72266 1.67968,1.60157 0.58594,0.8789 0.58594,1.71875 0,0.91797 -0.625,1.5039 -0.60547,0.58594 -1.73828,0.58594 -0.82031,0 -1.40625,-0.46875 -0.56641,-0.46875 -1.30859,-1.40625 -0.60547,-0.78125 -1.42579,-1.25 -0.82031,-0.46875 -2.22656,-0.46875 -1.44531,0 -2.40234,0.625 -0.95703,0.60547 -0.95703,1.52344 0,0.83984 0.70312,1.38672 0.70313,0.52734 1.89453,0.8789 1.19141,0.35157 3.28125,0.85938 2.48047,0.60547 4.04297,1.44531 1.58203,0.83984 2.38281,1.99219 0.82032,1.13281 0.82032,2.59765 z" />
      <path
         inkscape:connector-curvature="0"
         id="path6447"
         style="font-style:normal;font-variant:normal;font-weight:normal;font-stretch:normal;font-size:40px;line-height:1.25;font-family:'Arial Rounded MT Bold';-inkscape-font-specification:'Arial Rounded MT Bold, ';fill:#ffffff;fill-opacity:1"
         d="m -538.88086,-173.23492 h -10.42969 q 0.0195,1.81641 0.72266,3.20313 0.72266,1.38671 1.89453,2.08984 1.19141,0.70312 2.61719,0.70312 0.95703,0 1.73828,-0.21484 0.80078,-0.23437 1.54297,-0.70312 0.74219,-0.48829 1.36719,-1.03516 0.625,-0.54688 1.62109,-1.48438 0.41016,-0.35156 1.17187,-0.35156 0.82032,0 1.32813,0.44922 0.50781,0.44922 0.50781,1.26953 0,0.72266 -0.5664,1.69922 -0.56641,0.95703 -1.71875,1.85547 -1.13282,0.87891 -2.8711,1.46484 -1.71875,0.58594 -3.96484,0.58594 -5.13672,0 -7.98828,-2.92969 -2.85157,-2.92968 -2.85157,-7.94922 0,-2.36328 0.70313,-4.375 0.70312,-2.03125 2.05078,-3.47656 1.34766,-1.44531 3.32031,-2.20703 1.97266,-0.78125 4.375,-0.78125 3.125,0 5.35157,1.32813 2.24609,1.30859 3.35937,3.39843 1.11328,2.08985 1.11328,4.25782 0,2.01171 -1.15234,2.61718 -1.15235,0.58594 -3.24219,0.58594 z m -10.42969,-3.02734 h 9.66797 q -0.19531,-2.73438 -1.48437,-4.08203 -1.26953,-1.36719 -3.35938,-1.36719 -1.99219,0 -3.28125,1.38672 -1.26953,1.36718 -1.54297,4.0625 z" />
      <path
         inkscape:connector-curvature="0"
         id="path6449"
         style="font-style:normal;font-variant:normal;font-weight:normal;font-stretch:normal;font-size:40px;line-height:1.25;font-family:'Arial Rounded MT Bold';-inkscape-font-specification:'Arial Rounded MT Bold, ';fill:#ffffff;fill-opacity:1"
         d="m -524.7207,-171.39898 v 4.45312 q 0,1.6211 -0.76172,2.44141 -0.76172,0.80078 -1.9336,0.80078 -1.15234,0 -1.89453,-0.82031 -0.74218,-0.82031 -0.74218,-2.42188 v -14.84375 q 0,-3.59375 2.59765,-3.59375 1.32813,0 1.91406,0.83985 0.58594,0.83984 0.64454,2.48047 0.95703,-1.64063 1.95312,-2.48047 1.01563,-0.83985 2.69531,-0.83985 1.67969,0 3.26172,0.83985 1.58203,0.83984 1.58203,2.22656 0,0.97656 -0.68359,1.62109 -0.66406,0.625 -1.44531,0.625 -0.29297,0 -1.42578,-0.35156 -1.11329,-0.37109 -1.97266,-0.37109 -1.17188,0 -1.91406,0.625 -0.74219,0.60547 -1.15235,1.8164 -0.41015,1.21094 -0.5664,2.89063 -0.15625,1.66015 -0.15625,4.0625 z" />
    </g>
    <path
       inkscape:connector-curvature="0"
       id="path3214"
       d="M 186.64507,139.45039 31.55137,145.65414 143.21884,43.2923 c 0,0 -18.61125,34.120613 -17.06031,46.528109 1.55094,12.407491 -4.65281,13.958431 6.20375,21.713121 10.85656,7.75468 12.40749,9.30562 12.40749,9.30562 z"
       style="fill:#f9f9f9;stroke:none" />
  </g>
</svg>
